<?xml version="1.0" standalone="no"?><!DOCTYPE svg PUBLIC "-//W3C//DTD SVG 1.1//EN" "http://www.w3.org/Graphics/SVG/1.1/DTD/svg11.dtd"><svg t="1505916041384" class="icon" style="" viewBox="0 0 1024 1024" version="1.1" xmlns="http://www.w3.org/2000/svg" p-id="2366" xmlns:xlink="http://www.w3.org/1999/xlink" width="32" height="32"><defs><style type="text/css"></style></defs><path d="M906.000004 166.04064c-21.246907-20.083407-20.957311-19.771299-46.278-43.659359-25.322735-23.887037-79.752392-29.396517-113.515357 4.366448-33.762965 33.763988-550.984896 553.60149-550.984896 553.60149s-96.720855 222.375693-102.163821 234.890728 5.239328 24.449855 17.464767 19.208481c12.223393-5.236258 245.366314-102.162798 245.366314-102.162798s508.052085-508.053108 550.110993-550.112016C948.059935 240.114706 927.247934 186.124048 906.000004 166.04064zM156.323836 869.415272l61.794391-142.436036 83.709517 81.078597L156.323836 869.415272zM346.52576 782.369777l-97.552803-94.750991 379.827725-378.345977 94.999654 91.991134L346.52576 782.369777zM761.377162 365.731682l-97.216135-94.579075 42.966581-42.8796 97.198739 94.726431L761.377162 365.731682zM871.686501 257.758552c-15.214517 15.214517-36.520775 36.602639-36.520775 36.602639l-100.757798-96.918353c0 0 21.895683-21.409612 37.705763-36.869722 15.809057-15.458063 47.131437-14.319124 63.052035 0.895393 15.920598 15.213493 17.030885 16.068977 34.282804 33.023114C890.031311 214.7142 886.89897 242.545058 871.686501 257.758552z" p-id="2367" fill="#ffffff"></path></svg>